# xmcd CD database file
#
# Track frame offsets:
#	150
#	8024
#	25276
#	41628
#	55715
#	71895
#	87732
#	106004
#	122041
#	139265
#	161300
#	186877
#	211144
#	235431
#	254200
#	277530
#	301329
#
# Disc length: 4384 seconds
#
# Revision: 10
# Processed by: cddbd v1.5.1PL2 Copyright (c) Steve Scherf et al.
# Submitted via: CDex 1.51
#
DISCID=eb111e11
DTITLE=Van Halen - Best Of Volume 1
DYEAR=1996
DGENRE=Rock
TTITLE0=Eruption
TTITLE1=Ain't talking 'bout Love
TTITLE2=Runnin' with the Devil
TTITLE3=Dance the Night away
TTITLE4=And the Cradle will rock...
TTITLE5=Unchained
TTITLE6=Jump
TTITLE7=Panama
TTITLE8=Why can't this be Love
TTITLE9=Dreams
TTITLE10=When it's Love
TTITLE11=Poundcake
TTITLE12=Right now
TTITLE13=Can't stop lovin' you
TTITLE14=Humans Being
TTITLE15=Can't get this Stuff no more
TTITLE16=Me wise magic
EXTD=YEAR: 1996
EXTT0=
EXTT1=
EXTT2=
EXTT3=
EXTT4=
EXTT5=
EXTT6=
EXTT7=
EXTT8=
EXTT9=
EXTT10=
EXTT11=
EXTT12=
EXTT13=
EXTT14=
EXTT15=
EXTT16=
PLAYORDER=
